HIERARCHY
ROOT Hips
{
	OFFSET 0.000000 0.000000 0.000000
	CHANNELS 6 Xposition Yposition Zposition Zrotation Yrotation Xrotation 
	JOINT LHipJoint
	{
		OFFSET 0.000000 0.000000 0.000000
		CHANNELS 3 Zrotation Yrotation Xrotation
		JOINT LeftUpLeg
		{
			OFFSET 1.363060 -1.794630 0.839290
			CHANNELS 3 Zrotation Yrotation Xrotation
			JOINT LeftLeg
			{
				OFFSET 2.448110 -6.726130 0.000000
				CHANNELS 3 Zrotation Yrotation Xrotation
				JOINT LeftFoot
				{
					OFFSET 2.562200 -7.039590 0.000000
					CHANNELS 3 Zrotation Yrotation Xrotation
					JOINT LeftToeBase
					{
						OFFSET 0.157640 -0.433110 2.322550
						CHANNELS 3 Zrotation Yrotation Xrotation
						End Site
						{
							OFFSET 0.000000 0.000000 0.000000
						}
					}
				}
			}
		}
	}
	JOINT RHipJoint
	{
		OFFSET 0.000000 0.000000 0.000000
		CHANNELS 3 Zrotation Yrotation Xrotation
		JOINT RightUpLeg
		{
			OFFSET -1.305520 -1.794630 0.839290
			CHANNELS 3 Zrotation Yrotation Xrotation
			JOINT RightLeg
			{
				OFFSET -2.542530 -6.985550 0.000000
				CHANNELS 3 Zrotation Yrotation Xrotation
				JOINT RightFoot
				{
					OFFSET -2.568260 -7.056230 0.000000
					CHANNELS 3 Zrotation Yrotation Xrotation
					JOINT RightToeBase
					{
						OFFSET -0.164730 -0.452590 2.363150
						CHANNELS 3 Zrotation Yrotation Xrotation
						End Site
						{
							OFFSET 0.000000 0.000000 0.000000
						}
					}
				}
			}
		}
	}
	JOINT LowerBack
	{
		OFFSET 0.000000 0.000000 0.000000
		CHANNELS 3 Zrotation Yrotation Xrotation
		JOINT Spine
		{
			OFFSET 0.028270 2.035590 -0.193380
			CHANNELS 3 Zrotation Yrotation Xrotation
			JOINT Spine1
			{
				OFFSET 0.056720 2.048850 -0.042750
				CHANNELS 3 Zrotation Yrotation Xrotation
				JOINT Neck
				{
					OFFSET 0.000000 0.000000 0.000000
					CHANNELS 3 Zrotation Yrotation Xrotation
					JOINT Neck1
					{
						OFFSET -0.054170 1.746240 0.172020
						CHANNELS 3 Zrotation Yrotation Xrotation
						JOINT Head
						{
							OFFSET 0.104070 1.761360 -0.123970
							CHANNELS 3 Zrotation Yrotation Xrotation
							End Site
							{
								OFFSET 0.000000 0.000000 0.000000
							}
						}
					}
				}
				JOINT LeftShoulder
				{
					OFFSET 0.000000 0.000000 0.000000
					CHANNELS 3 Zrotation Yrotation Xrotation
					JOINT LeftArm
					{
						OFFSET 3.362410 1.200890 -0.311210
						CHANNELS 3 Zrotation Yrotation Xrotation
						JOINT LeftForeArm
						{
							OFFSET 4.983000 -0.000000 -0.000000
							CHANNELS 3 Zrotation Yrotation Xrotation
							JOINT LeftHand
							{
								OFFSET 3.483560 -0.000000 -0.000000
								CHANNELS 3 Zrotation Yrotation Xrotation
								JOINT LeftFingerBase
								{
									OFFSET 0.000000 0.000000 0.000000
									CHANNELS 3 Zrotation Yrotation Xrotation
									JOINT LeftHandIndex1
									{
										OFFSET 0.715260 -0.000000 -0.000000
										CHANNELS 3 Zrotation Yrotation Xrotation
										End Site
										{
											OFFSET 0.000000 0.000000 0.000000
										}
									}
								}
								JOINT LThumb
								{
									OFFSET 0.000000 0.000000 0.000000
									CHANNELS 3 Zrotation Yrotation Xrotation
									End Site
									{
										OFFSET 0.000000 0.000000 0.000000
									}
								}
							}
						}
					}
				}
				JOINT RightShoulder
				{
					OFFSET 0.000000 0.000000 0.000000
					CHANNELS 3 Zrotation Yrotation Xrotation
					JOINT RightArm
					{
						OFFSET -3.136600 1.374050 -0.404650
						CHANNELS 3 Zrotation Yrotation Xrotation
						JOINT RightForeArm
						{
							OFFSET -5.241900 -0.000000 -0.000000
							CHANNELS 3 Zrotation Yrotation Xrotation
							JOINT RightHand
							{
								OFFSET -3.444170 -0.000000 -0.000000
								CHANNELS 3 Zrotation Yrotation Xrotation
								JOINT RightFingerBase
								{
									OFFSET 0.000000 0.000000 0.000000
									CHANNELS 3 Zrotation Yrotation Xrotation
									JOINT RightHandIndex1
									{
										OFFSET -0.622530 -0.000000 -0.000000
										CHANNELS 3 Zrotation Yrotation Xrotation
										End Site
										{
											OFFSET 0.000000 0.000000 0.000000
										}
									}
								}
								JOINT RThumb
								{
									OFFSET 0.000000 0.000000 0.000000
									CHANNELS 3 Zrotation Yrotation Xrotation
									End Site
									{
										OFFSET 0.000000 0.000000 0.000000
									}
								}
							}
						}
					}
				}
			}
		}
	}
}
MOTION
Frames: 12
Frame Time: 0.008333
24.386054 26.468600 -0.688143 -109.439017 74.551466 40.608566 156.687573 -83.668609 160.368808 -137.737725 43.089481 120.633532 103.069625 19.238009 -60.677575 50.676824 51.438591 -128.652803 0.420800 -4.163800 -11.538000 -59.870502 14.135403 95.549722 7.624392 12.800591 -173.337490 56.017415 33.296936 41.092108 163.460719 -5.587156 47.686445 -0.050100 1.444100 -3.971800 -108.025667 -40.540476 -58.222248 97.477621 -75.437626 68.375988 -65.092154 71.123851 166.953076 116.732150 4.373034 -72.303736 102.115147 41.386896 56.222407 -1.636300 -1.458800 -0.259500 -130.184062 -49.057666 -119.616947 -152.529475 67.539407 -30.706329 60.679444 17.487443 179.351140 -42.293905 44.872886 -26.641433 21.942004 10.498964 -17.481600 -7.125000 0.000000 0.000000 -2.441300 -8.823100 2.789300 -16.700535 -24.548920 -116.415415 -40.178226 56.570062 -94.987647 -81.906707 36.216791 -176.359829 62.515956 -76.383912 -22.980967 13.313156 -71.145810 -12.210800 7.125000 0.000000 0.000000 -0.352300 -4.554600 -0.323200 
24.084209 26.538933 -0.744889 -22.782566 -9.947794 -67.108876 175.353850 82.886631 48.409101 -104.017431 36.307154 129.756911 -42.333663 -5.415477 145.590353 -0.770622 -59.271107 25.030262 1.035100 -6.471000 -18.157400 140.814211 -20.416781 9.311289 -45.792829 37.951566 157.819628 -6.668736 28.945221 5.916332 -31.340256 1.499255 -106.222454 -0.017000 0.841700 -2.313400 12.049808 -61.436671 78.155718 -118.019695 -50.416407 109.437140 107.108069 -38.777353 165.467279 116.364084 -68.021639 -23.536585 114.328472 28.449857 91.451871 -1.576200 -1.407400 -0.140200 88.040329 43.735838 23.058446 -10.353538 -49.471345 -89.334451 -3.117347 -2.046871 152.100348 -49.481680 38.213986 -53.040178 -38.441723 30.073312 -17.820900 -7.125000 0.000000 0.000000 -2.097400 -8.839400 2.396300 -139.968774 -38.686806 -74.479465 21.064783 -75.222492 -66.417068 -13.864886 -0.625637 -75.216084 116.707766 43.969946 -49.515257 96.519900 47.218400 -11.767396 7.125000 0.000000 0.000000 0.042100 -4.956000 0.038300 
23.774904 26.604736 -0.810959 107.462756 -57.607215 -12.099973 -28.260351 42.391693 43.216702 -82.623355 -43.009908 -133.933532 81.324082 -78.431786 40.263436 74.661872 86.786879 -131.199826 1.655500 -8.108200 -23.043300 169.833385 36.628312 139.228856 12.123061 53.591287 -1.518598 109.980945 52.378945 88.122152 147.172834 -23.196573 141.295809 -0.032400 1.161300 -3.192700 25.821285 6.781313 -39.835491 34.422650 88.404934 150.645690 -84.574980 71.408719 -177.537764 -75.781804 83.290726 -105.687934 177.620443 -26.575739 178.799378 -1.475600 -1.498100 -0.163800 -72.651237 83.203292 91.236104 100.106969 -61.983514 -65.630872 92.109590 -25.086036 21.965226 -39.404760 18.217367 -1.278553 -5.711077 -17.857334 -18.083500 -7.125000 0.000000 0.000000 -1.866500 -8.909200 2.134100 -97.281934 -40.538973 118.232140 161.504799 -55.898196 -28.477733 145.934406 -83.915262 13.795418 40.787014 -63.596911 -41.481308 23.621190 -49.513665 -11.379816 7.125000 0.000000 0.000000 0.428700 -5.272300 0.387500 
23.468264 26.682262 -0.874099 -151.882102 -38.288398 45.485111 59.150595 -14.123718 83.966492 6.842771 -20.301503 146.282467 -59.245981 27.374705 -82.006537 82.805203 75.854035 96.913295 1.348000 -7.350200 -20.757100 141.839209 -41.556831 -99.648999 35.725551 -14.184566 -24.668504 42.905251 -16.432692 -167.314528 -129.943321 72.604022 -160.871046 -0.095200 1.989400 -5.476400 93.210600 71.254900 -63.590595 20.016808 19.941744 161.994588 85.787291 7.518816 14.098877 -147.435994 9.415622 -59.998696 -128.775175 21.164798 -157.308119 -1.502800 -1.523000 -0.150200 62.402156 42.137297 22.625364 -27.659762 84.135639 58.027321 -104.342802 61.979957 -23.731519 2.145513 -20.117670 -72.220720 40.654777 -34.968514 -18.240300 -7.125000 0.000000 0.000000 -1.803500 -9.067100 2.066200 -58.838538 -25.222960 -37.606833 27.579450 -77.927616 72.194023 71.924380 -38.675794 -1.348164 15.268990 -78.707305 -32.308805 -15.535729 -54.544983 -10.914200 7.125000 0.000000 0.000000 0.808500 -5.765500 0.723300 
23.155229 26.763518 -0.946030 -97.659926 -31.684923 -47.560826 64.761464 -79.351077 -129.323854 -131.664646 31.619236 55.380249 -10.853336 -0.699601 -95.279787 -113.890585 11.257065 -15.848399 1.150100 -6.809400 -19.152000 43.858918 87.287083 13.002110 158.078194 29.329496 -179.668608 146.473482 31.474014 115.695267 -21.963671 -35.246145 -76.583665 -0.086800 1.900600 -5.231200 65.799522 86.466833 -157.829288 131.902410 -24.244712 4.153675 -90.826447 62.276413 17.653557 124.792273 50.036760 91.388332 -3.607396 -43.881943 -29.129240 -1.377100 -1.638600 -0.096900 -144.590787 -58.809959 -83.271890 -57.391379 -17.338827 122.862942 86.525671 40.677895 0.992419 -67.812221 21.945446 11.455212 -30.002201 -3.724340 -18.247200 -7.125000 0.000000 0.000000 -1.775500 -9.034900 2.033100 100.692189 -36.432498 -77.614600 -49.173994 31.332848 -21.960555 -56.086476 -17.644622 -175.420096 45.840212 -49.902336 20.541063 -58.659803 -6.819703 -10.374901 7.125000 0.000000 0.000000 1.200100 -6.418800 1.058600 
22.832604 26.833585 -1.032348 53.039783 -25.953826 95.459658 92.101863 20.172819 139.407362 157.995770 0.997276 55.792674 -0.053700 -23.521476 159.096635 82.491730 -6.971575 155.156339 1.215100 -6.992300 -19.692500 -6.946423 37.944483 177.109085 152.416160 -13.374333 -126.900951 61.655647 61.846020 -26.320823 126.680983 26.046001 119.409471 -0.036500 1.233000 -3.390100 46.252261 -21.344115 175.899151 -6.032503 -83.112731 -132.948997 -26.239586 65.776476 -36.680228 39.591584 73.260015 73.567837 6.975074 -62.083837 -15.254438 -1.783800 -1.541100 -0.104200 -88.711688 -72.707115 104.697203 47.499209 42.684272 15.894586 49.798267 23.781831 40.162635 -74.014659 -28.952841 64.244955 -47.019995 -78.592423 -18.161500 -7.125000 0.000000 0.000000 -1.769900 -8.886100 2.022900 -108.433805 25.307346 9.687121 -102.420400 -10.649238 23.662233 10.455945 -41.003045 -70.066681 51.594416 -77.041966 -17.812944 179.160796 -85.648903 170.064900 7.125000 0.000000 0.000000 1.561200 -6.926600 1.362000 
22.499322 26.909246 -1.122395 44.488177 -65.475428 135.120943 -34.642915 -33.886404 70.891435 112.092097 48.739824 -98.888218 43.586481 28.328427 -132.140285 125.390547 -60.435978 -150.665883 0.789400 -5.671600 -15.834600 -4.029277 43.205432 -84.469645 -36.796681 13.532099 -6.757328 87.108987 46.499823 135.500399 170.961128 -19.272815 65.134125 -0.004300 0.423400 -1.163400 71.092818 87.012861 135.199384 -96.566770 11.413770 127.469660 -15.014162 49.614624 87.047763 144.109641 76.411899 40.468108 -162.859362 66.887824 149.472512 -1.958800 -1.662100 -0.417000 -92.032516 -80.650533 -151.535157 134.419439 28.864482 -112.540898 -127.102164 -23.257457 159.114040 -17.590319 15.610205 -34.342010 14.247390 -9.139357 -18.281100 -7.125000 0.000000 0.000000 -1.681100 -8.943600 1.922800 123.776818 -62.565778 -18.152881 164.989511 -62.117421 -63.117272 56.985521 9.139412 6.111309 15.618202 -5.992194 -3.000538 -13.550982 16.455717 -9.564700 7.125000 0.000000 0.000000 1.930500 -7.295400 1.670700 
22.159913 26.990502 -1.209246 -20.916964 10.071753 134.618647 -63.671213 -87.582152 -119.228239 -72.355252 41.939858 -115.663645 -106.036393 -44.624225 124.853447 31.191009 -5.505620 34.811851 0.706000 -5.370300 -14.967900 -94.370182 -33.018960 136.179665 83.133341 85.401577 -171.658546 3.143120 29.640725 -134.245615 137.767543 62.399329 -26.659736 -0.024100 1.001300 -2.752300 17.861164 77.393151 36.042087 24.636300 7.698367 -115.473498 84.481419 -50.711254 -61.119552 -86.976218 47.480758 -152.143133 -14.015388 -87.833310 -138.798959 -1.734800 -1.545200 -0.127000 21.140130 33.887335 125.804616 51.147185 -30.467945 150.271294 10.867506 83.350490 -158.779052 12.039974 -64.142142 10.386290 -154.984732 -67.984667 161.823800 -7.125000 0.000000 0.000000 -1.888500 -9.094900 2.164400 90.911707 64.100872 -97.453599 -121.582083 48.236496 6.057119 121.773054 -89.316481 -152.076702 -88.787374 32.667940 -52.829203 -110.072595 -27.584747 -9.156799 7.125000 0.000000 0.000000 2.295300 -7.769200 1.965600 
21.831160 27.073622 -1.288637 -140.308026 -15.023201 -61.898009 -102.695394 86.830841 69.927196 161.189372 -26.880421 -158.462878 136.903035 -34.283964 -28.105678 141.416641 37.484047 -11.902690 0.973100 -6.279900 -17.598700 -25.018087 66.348584 -113.291931 -41.107792 -76.785845 -84.618511 -78.293755 9.195335 112.547995 156.154917 83.020217 14.228183 -0.134100 2.360200 -6.502200 -42.901070 45.217539 22.104433 139.849409 61.712791 165.007945 -3.768793 62.696366 121.256340 -179.006018 -18.730605 148.200706 37.693529 89.558129 30.609940 -1.752400 -1.520700 -0.047500 -160.071231 -8.972358 82.428563 14.943950 -36.607648 -118.785451 -118.775061 -80.271881 -17.412429 88.570237 -23.858548 -62.315059 100.078317 -36.183427 -17.905800 -7.125000 0.000000 0.000000 -2.204500 -9.150700 2.528800 -128.771082 -12.573101 -91.000265 -136.297961 33.668792 -99.986467 -4.551630 33.650043 -4.022743 -10.971724 -3.015333 -11.002687 -38.487070 15.905553 -8.903300 7.125000 0.000000 0.000000 2.583000 -8.002100 2.200500 
21.501874 27.157009 -1.365363 -130.507213 18.063406 48.121762 8.294899 -22.979465 -170.872279 164.544086 33.401370 13.874830 51.881607 -3.600246 130.519840 -140.869579 11.168446 66.505914 0.951700 -6.212500 -17.402100 105.360383 -80.785851 128.723935 82.757124 -73.360854 -14.756949 125.695699 40.757891 31.475899 -172.466261 44.411097 60.472418 -0.255900 3.254500 -8.988100 142.892089 15.544216 19.706533 129.172503 -82.656602 -108.888320 -57.287905 82.356801 144.939603 100.171403 -36.242117 157.421415 -167.258008 -68.664793 178.634410 -1.799500 -1.586800 -0.061600 -25.593576 -74.559383 100.064864 43.182559 1.236591 -131.238464 -4.199506 -89.686313 11.457536 29.833299 -61.785483 -136.758572 83.379392 -33.799614 -18.132400 -7.125000 0.000000 0.000000 -2.055500 -9.286400 2.361600 179.749281 39.771203 -136.127267 -89.018716 -58.562401 157.666292 -129.865475 -46.353162 -33.221688 130.494388 -42.792643 162.810520 -91.099233 -70.245701 -8.899504 7.125000 0.000000 0.000000 2.841200 -7.698400 2.438000 
21.163797 27.235867 -1.447685 136.411543 -44.875357 9.661039 164.776415 18.194917 137.586817 56.150976 -43.625987 9.174662 -28.021899 36.492225 -2.363691 8.183221 82.908071 -82.146438 0.886200 -6.000800 -16.786900 -25.409135 -66.094552 -86.904227 129.517980 -24.314562 -14.186376 -81.855313 57.069747 -108.438518 153.001456 -21.708824 144.688057 -0.280700 3.407400 -9.415000 175.159176 42.993352 -17.184651 -120.010602 77.241613 -11.192495 -4.784330 -27.619316 -176.544129 61.645465 38.622868 -112.613647 -148.621132 -11.120186 170.134421 -1.973400 -1.785900 -0.133900 137.500606 54.045600 -176.387168 13.748203 64.745898 -162.406570 71.969799 -9.709860 173.173093 2.902113 25.512638 -23.412672 47.108374 -36.546733 -18.610801 -7.125000 0.000000 0.000000 -1.751100 -9.586000 2.019100 -14.659367 14.304649 147.695130 -0.202673 64.298106 150.701062 -153.014491 50.203150 -140.000692 -103.920240 40.604443 -3.665762 -138.829702 28.137367 -8.905900 7.125000 0.000000 0.000000 3.085400 -7.379100 2.667600 
20.820125 27.291814 -1.522813 46.196039 22.603772 -45.167979 -7.227412 -42.743446 -76.363360 -150.681367 56.758072 -25.531020 178.700346 66.073700 104.205231 -68.234635 -16.277883 32.792441 0.932300 -6.150600 -17.221900 -70.827946 -66.170563 106.311077 45.798967 -54.158217 -112.474532 10.311082 23.459743 153.538445 -100.665588 -87.238116 3.335016 -0.345300 3.775600 -10.446100 -107.480745 -6.045546 -17.415974 -17.399952 -52.165892 -176.547337 -86.695532 48.449946 115.125249 -50.289432 82.225495 -18.274809 54.845458 -70.717764 -25.575598 -1.932800 -1.776300 -0.136900 71.880390 40.153272 89.402976 9.350953 72.691796 -150.266653 -33.919447 81.724587 169.507532 62.342831 -14.487441 -37.429088 77.521772 -59.631099 -19.033900 -7.125000 0.000000 0.000000 -1.479000 -9.840100 1.710500 152.520228 -42.885041 91.747519 -32.904353 -12.464055 -141.622687 52.359448 -81.255946 4.584893 16.836101 -15.601127 5.266157 -8.060841 11.585132 -8.777500 7.125000 0.000000 0.000000 3.356400 -7.335700 2.905500 
